<svg xmlns="http://www.w3.org/2000/svg" xmlns:xlink="http://www.w3.org/1999/xlink" width="500" zoomAndPan="magnify" viewBox="0 0 375 374.999991" height="500" preserveAspectRatio="xMidYMid meet" version="1.0"><defs><g/></defs><rect x="-37.5" width="450" fill="#ffffff" y="-37.499999" height="449.999989" fill-opacity="1"/><rect x="-37.5" width="450" fill="#fffbfa" y="-37.499999" height="449.999989" fill-opacity="1"/><rect x="-37.5" width="450" fill="#ffffff" y="-37.499999" height="449.999989" fill-opacity="1"/><g fill="#000000" fill-opacity="1"><g transform="translate(44.816121, 267.710052)"><g><path d="M 75.6875 -196.3125 C 68.851562 -196.3125 63.632812 -193.375 60.03125 -187.5 C 58.507812 -184.84375 57.65625 -181.804688 57.46875 -178.390625 L 57.46875 0 C 57.46875 15.9375 52.488281 29.40625 42.53125 40.40625 C 32.570312 51.40625 20.289062 56.90625 5.6875 56.90625 L 5.6875 54.34375 C 14.976562 51.113281 22.847656 44.140625 29.296875 33.421875 C 35.753906 22.710938 38.984375 11.285156 38.984375 -0.859375 L 38.984375 -178.390625 C 38.785156 -183.316406 36.929688 -187.535156 33.421875 -191.046875 C 29.921875 -194.554688 25.703125 -196.3125 20.765625 -196.3125 L 17.078125 -196.3125 L 17.078125 -199.15625 L 79.375 -199.15625 L 79.375 -196.3125 Z M 75.6875 -196.3125 "/></g></g></g><g fill="#000000" fill-opacity="1"><g transform="translate(98.865818, 267.710052)"><g><path d="M 155.625 -2.84375 C 160.5625 -2.84375 164.78125 -4.550781 168.28125 -7.96875 C 171.789062 -11.382812 173.644531 -15.554688 173.84375 -20.484375 L 173.84375 -94.171875 L 57.46875 -94.171875 L 57.46875 -20.765625 C 57.46875 -15.835938 59.269531 -11.617188 62.875 -8.109375 C 66.476562 -4.597656 70.75 -2.84375 75.6875 -2.84375 L 79.375 -2.84375 L 79.375 0 L 17.078125 0 L 17.078125 -2.84375 L 20.765625 -2.84375 C 25.703125 -2.84375 29.921875 -4.597656 33.421875 -8.109375 C 36.929688 -11.617188 38.785156 -15.835938 38.984375 -20.765625 L 38.984375 -178.671875 C 38.785156 -183.609375 36.929688 -187.78125 33.421875 -191.1875 C 29.921875 -194.601562 25.703125 -196.3125 20.765625 -196.3125 L 17.078125 -196.3125 L 17.078125 -199.15625 L 79.375 -199.15625 L 79.375 -196.3125 L 75.6875 -196.3125 C 70.75 -196.3125 66.523438 -194.601562 63.015625 -191.1875 C 59.503906 -187.78125 57.65625 -183.609375 57.46875 -178.671875 L 57.46875 -102.703125 L 173.84375 -102.703125 L 173.84375 -178.671875 C 173.644531 -185.503906 170.609375 -190.628906 164.734375 -194.046875 C 161.890625 -195.554688 158.851562 -196.3125 155.625 -196.3125 L 151.9375 -196.3125 L 151.9375 -199.15625 L 214.234375 -199.15625 L 214.234375 -196.3125 L 210.546875 -196.3125 C 205.609375 -196.3125 201.382812 -194.554688 197.875 -191.046875 C 194.363281 -187.535156 192.515625 -183.316406 192.328125 -178.390625 L 192.328125 -20.765625 C 192.515625 -15.835938 194.363281 -11.617188 197.875 -8.109375 C 201.382812 -4.597656 205.609375 -2.84375 210.546875 -2.84375 L 214.234375 -2.84375 L 214.234375 0 L 151.9375 0 L 151.9375 -2.84375 Z M 155.625 -2.84375 "/></g></g></g></svg>